<svg xmlns="http://www.w3.org/2000/svg" width="64" height="64" viewBox="0 0 64 64">
  <defs>
    <linearGradient id="g" x1="0" x2="1" y1="0" y2="1">
      <stop offset="0%" stop-color="#059669"/>
      <stop offset="100%" stop-color="#f97316"/>
    </linearGradient>
  </defs>
  <rect width="64" height="64" rx="12" fill="url(#g)"/>
  <g fill="white" transform="translate(12,12)">
    <path d="M20 0c6.627 0 12 5.373 12 12 0 6.627-5.373 12-12 12S8 18.627 8 12C8 5.373 13.373 0 20 0zm0 4c-4.418 0-8 3.582-8 8 0 4.418 3.582 8 8 8 4.418 0 8-3.582 8-8 0-4.418-3.582-8-8-8z"/>
    <path d="M6 28c0-4.418 7.163-8 16-8s16 3.582 16 8v2H6v-2z"/>
  </g>
</svg>
